PathFileType	4	(X/Y/Z)	./resultDataOpenSim/trcMotMarkerGrf/sub06/qtm-01-03.trc
DataRate	CameraRate	NumFrames	NumMarkers	Units	OrigDataRate	OrigDataStartFrame	OrigNumFrames
250.000000	250.000000	13	24	m	250.000000	385	512
Frame#	Time	L.Toe.Tip			R.Toe.Tip			L.Ankle.Lat			R.Ankle.Lat			L.Ankle.Med			R.Ankle.Med			L.Heel			R.Heel			L.Knee.Lat			R.Knee.Lat			L.Knee.Med			R.Knee.Med			L.Thigh.Upper			R.Thigh.Upper			L.ASIS			R.ASIS			V.Sacral			L.Acromium			R.Acromium			C7			L.Elbow			R.Elbow			L.Wrist.Lat			R.Wrist.Lat
		X1	Y1	Z1	X2	Y2	Z2	X3	Y3	Z3	X4	Y4	Z4	X5	Y5	Z5	X6	Y6	Z6	X7	Y7	Z7	X8	Y8	Z8	X9	Y9	Z9	X10	Y10	Z10	X11	Y11	Z11	X12	Y12	Z12	X13	Y13	Z13	X14	Y14	Z14	X15	Y15	Z15	X16	Y16	Z16	X17	Y17	Z17	X18	Y18	Z18	X19	Y19	Z19	X20	Y20	Z20	X21	Y21	Z21	X22	Y22	Z22	X23	Y23	Z23	X24	Y24	Z24

385	1.536	1.3842109	0.11745741	-0.066313189	0.82675941	0.034698926	0.11847086	1.2575974	0.092412662	-0.073758641	0.69291159	0.072475053	0.13939565	1.2644357	0.1101496	0.0097336646	0.71949799	0.091884401	0.053430623	1.211465	0.034241142	-0.020220407	0.63838109	0.057902436	0.077870829	1.1509626	0.44510646	-0.073824166	0.85263595	0.43021749	0.17631985	1.1481547	0.43389046	0.051895308	0.8253945	0.43245245	0.046050321	0.9793509	0.79885003	-0.10942912	0.93302919	0.78761801	0.2352069	1.042454	0.84625001	-0.058013465	1.035662	0.84056193	0.19214823	0.85080469	0.91417817	0.063264458	0.93425004	1.322926	-0.11803326	0.96801558	1.3170683	0.24266899	0.87378896	1.3547063	0.069002965	0.83116238	1.0268535	-0.16114724	1.013113	1.0053197	0.33369337	0.91042195	0.80137127	-0.21044025	1.2535835	0.94880438	0.30381259
386	1.54	1.3974276	0.12182646	-0.066087631	0.82681515	0.034702046	0.11848932	1.2712294	0.094493975	-0.07369935	0.693343	0.073302969	0.13956773	1.2773589	0.11170832	0.0099302716	0.7199815	0.092486753	0.053553578	1.2262501	0.035014975	-0.020888143	0.63868309	0.059106034	0.078044035	1.1576712	0.44410957	-0.072604589	0.85642386	0.42973383	0.17620355	1.1544244	0.4330769	0.053079301	0.82930616	0.43200396	0.045973854	0.9858129	0.79714428	-0.10970362	0.93856213	0.78652916	0.23485005	1.0489626	0.8447648	-0.058169437	1.0414626	0.83926218	0.19182178	0.8570748	0.91295836	0.062453022	0.94021306	1.3214918	-0.11837334	0.97390473	1.3158068	0.24239537	0.87967849	1.353392	0.068664988	0.83646473	1.0259724	-0.16076948	1.0205382	1.0043232	0.33359122	0.91352955	0.79997427	-0.21127464	1.2612921	0.94962619	0.30262637
387	1.544	1.4101213	0.12592378	-0.065917843	0.82688604	0.034707143	0.11851046	1.2843284	0.096598454	-0.073525719	0.69383465	0.074166603	0.1397787	1.2899687	0.11319465	0.010329114	0.72054402	0.093117801	0.053709795	1.2404522	0.03586862	-0.021445649	0.63900404	0.060395101	0.078265623	1.1644607	0.44331173	-0.071432952	0.86053979	0.42929419	0.1760247	1.160666	0.43248277	0.054194674	0.83330038	0.43153568	0.0459357	0.99231327	0.79546517	-0.10999138	0.94412689	0.78545463	0.23449533	1.0555192	0.84332064	-0.058369799	1.0473896	0.83797067	0.19150767	0.86290799	0.91189128	0.061708783	0.94619514	1.3200796	-0.11872726	0.97979636	1.3145559	0.24211024	0.88559661	1.3520916	0.068298368	0.8418184	1.0250776	-0.16045429	1.0279097	1.0033187	0.33344948	0.9167274	0.79859335	-0.21207755	1.2689152	0.95035816	0.30145284
388	1.548	1.4223084	0.12971497	-0.06579735	0.82696767	0.0347143	0.1185286	1.2968916	0.09863324	-0.073228435	0.69440305	0.075057931	0.1400129	1.3022763	0.11454711	0.010940632	0.72114572	0.093796719	0.05389407	1.253984	0.036797234	-0.021934095	0.63931748	0.061795705	0.078587936	1.17135	0.44267994	-0.070337677	0.86469159	0.42883519	0.17588199	1.1668692	0.43203461	0.055220896	0.83736724	0.43105646	0.045932563	0.99886648	0.79383533	-0.11030245	0.94971969	0.78440015	0.23414361	1.0621276	0.84190849	-0.058571518	1.0534512	0.83667596	0.19125404	0.86833011	0.91099899	0.061021917	0.95219616	1.3186935	-0.11909926	0.98570309	1.3133098	0.24181308	0.89154508	1.3508074	0.067904194	0.84722232	1.0241499	-0.16021177	1.0352268	1.002307	0.33326684	0.92003835	0.79722877	-0.21284802	1.2764621	0.95099354	0.30029935
389	1.552	1.4339963	0.13316699	-0.065738883	0.82704817	0.034727487	0.11854709	1.3089219	0.10049296	-0.072822442	0.69503738	0.075983462	0.14026045	1.3141885	0.11576946	0.011652377	0.72177584	0.094536048	0.054107259	1.2668464	0.037749816	-0.022242051	0.6396206	0.063324177	0.079031494	1.1783431	0.44217823	-0.069339844	0.86878948	0.4283442	0.17580834	1.173047	0.43165494	0.056149208	0.84150699	0.43057351	0.045954629	1.0054752	0.79226212	-0.11063621	0.95533782	0.78337096	0.23379277	1.0687707	0.84051633	-0.058767092	1.0595971	0.83536292	0.19102363	0.87386559	0.91015307	0.06020974	0.95821957	1.3173342	-0.11949237	0.99163714	1.3120682	0.24150235	0.8975306	1.3495344	0.067480236	0.85268723	1.0231978	-0.16002849	1.0424914	1.0012922	0.33304493	0.92346625	0.79588549	-0.21359502	1.28394	0.95152247	0.29916794
390	1.556	1.4451808	0.13622108	-0.065696519	0.82711383	0.034768787	0.11857741	1.3204224	0.1020942	-0.072329073	0.69570722	0.076962976	0.14052753	1.3255341	0.11692278	0.012340851	0.72243546	0.095342771	0.054355107	1.2791215	0.03860186	-0.022014295	0.63995369	0.064966109	0.079538165	1.1854301	0.44177169	-0.068454569	0.87289035	0.42784424	0.17578528	1.1792411	0.43128	0.05698216	0.84573875	0.43008874	0.04599202	1.0121338	0.79074385	-0.11098067	0.96098369	0.78237109	0.23344119	1.0754295	0.8391309	-0.058959764	1.0657534	0.83402281	0.19078405	0.88017657	0.90915942	0.05912209	0.96427006	1.316004	-0.11990665	0.99760258	1.3108383	0.24117833	0.90355075	1.3482733	0.067035387	0.85822809	1.0222404	-0.15988047	1.0497237	1.0002864	0.33280435	0.92700145	0.79456889	-0.21432553	1.2913509	0.95193681	0.29805358
391	1.56	1.455849	0.13878554	-0.065522429	0.82715768	0.034874372	0.11863252	1.3313954	0.10339563	-0.071748059	0.69638877	0.078017581	0.14082961	1.3361538	0.1180657	0.012988652	0.72313008	0.096219551	0.054643071	1.2908861	0.039211075	-0.020898011	0.64036782	0.066689078	0.08001907	1.1925953	0.44142861	-0.06768442	0.87707873	0.42736221	0.1757795	1.1855079	0.43086187	0.057730375	0.85009832	0.42960011	0.04603238	1.0188419	0.78928607	-0.11133286	0.96666168	0.78140218	0.23308564	1.0821024	0.83774051	-0.05913649	1.0718761	0.83266424	0.19057456	0.88726229	0.90798725	0.05788584	0.97034853	1.3147072	-0.12034046	1.0035958	1.3096264	0.24084045	0.9095919	1.3470348	0.066593792	0.86385249	1.0212899	-0.15975157	1.0569763	0.99931657	0.33260404	0.93063149	0.79328421	-0.21503587	1.2986888	0.95223895	0.29694883
392	1.564	1.4660014	0.1407656	-0.065033274	0.82718956	0.03504952	0.11871786	1.3418362	0.10437254	-0.071046263	0.69708986	0.079149239	0.14117421	1.3460441	0.1191873	0.013668224	0.72386897	0.097165159	0.05497423	1.3021323	0.039530669	-0.018960352	0.64087946	0.068477975	0.080445175	1.1998182	0.44112126	-0.067016646	0.88140237	0.42691039	0.17576935	1.1918935	0.43037028	0.058408448	0.85462081	0.42910883	0.046057214	1.0256061	0.78790456	-0.11170624	0.9723692	0.78046491	0.23271274	1.0887993	0.83634601	-0.059277787	1.0779674	0.83131558	0.1904512	0.89451891	0.90678651	0.056775416	0.97645093	1.3134469	-0.12079057	1.0096098	1.3084351	0.24048439	0.91564388	1.3458293	0.06617624	0.86955934	1.0203511	-0.15963475	1.0643238	0.99841999	0.33253148	0.93435346	0.7920376	-0.21572014	1.3059392	0.95244403	0.29584578
393	1.568	1.4756752	0.14211448	-0.064142577	0.82723401	0.03523766	0.11882778	1.3517403	0.10499491	-0.070176472	0.69785993	0.080330748	0.14156398	1.3553961	0.12018508	0.014450925	0.724662	0.098176997	0.055349345	1.3127729	0.039645674	-0.016753381	0.64146904	0.070348239	0.080863436	1.2070815	0.44082512	-0.066430434	0.88586559	0.4264836	0.17575273	1.1984231	0.42979578	0.059032296	0.85931453	0.42861742	0.046051148	1.0324238	0.78661389	-0.11210969	0.97809703	0.77955953	0.23230089	1.095524	0.83496735	-0.059387878	1.0840763	0.83000613	0.19041474	0.90157593	0.90567534	0.055894499	0.98257377	1.3122257	-0.12125377	1.015642	1.3072677	0.24010644	0.92170947	1.3446559	0.065788955	0.87534759	1.0194258	-0.15952837	1.0717932	0.99761199	0.33262342	0.93817807	0.79083311	-0.21638106	1.3130884	0.95256692	0.29473734
394	1.572	1.4849282	0.14288828	-0.062986554	0.82730665	0.035367392	0.11895452	1.3611246	0.10524446	-0.069098592	0.69876405	0.081525349	0.1420104	1.3643963	0.12092584	0.015350617	0.72551569	0.099254575	0.055766603	1.3227186	0.039668032	-0.014864036	0.64211418	0.072324894	0.08133378	1.2143839	0.4405217	-0.065907452	0.89044908	0.42606877	0.17573987	1.2051178	0.42915408	0.059608299	0.86414551	0.42812083	0.046020235	1.0392775	0.78542158	-0.11253452	0.98384715	0.77868006	0.23184656	1.1022756	0.83362923	-0.059489519	1.0902762	0.82874547	0.19041029	0.90849463	0.90465493	0.055155659	0.98871962	1.311045	-0.12173093	1.0216968	1.3061275	0.23970773	0.92779836	1.3435047	0.065421524	0.88121939	1.0185185	-0.15943466	1.0792917	0.99685267	0.33278294	0.94211873	0.7896707	-0.21702805	1.3201367	0.95261119	0.29362319
395	1.576	1.4937782	0.14324672	-0.061890299	0.82740082	0.035413993	0.11909498	1.3700129	0.10513623	-0.067814476	0.69982499	0.082727165	0.14252844	1.3730477	0.12132479	0.016329425	0.72642999	0.10040058	0.056222763	1.331933	0.03961162	-0.013477999	0.64280838	0.074420596	0.081883627	1.2217424	0.44020479	-0.065436774	0.89513287	0.42565605	0.17574126	1.2120059	0.42848954	0.060119675	0.86905165	0.42761518	0.045997515	1.0461513	0.78432807	-0.11296634	0.98964272	0.77781273	0.23138064	1.1090598	0.83234282	-0.059591741	1.0966017	0.82753067	0.19038062	0.91535243	0.90368978	0.054463216	0.99489466	1.3099051	-0.12222757	1.0277796	1.3050166	0.23929087	0.93391587	1.3423729	0.065040997	0.88717345	1.0176371	-0.15935598	1.0866642	0.99607463	0.3328426	0.94618089	0.78855035	-0.21766866	1.3270923	0.95257427	0.29250927
396	1.58	1.5021605	0.14334745	-0.061100187	0.8275086	0.035392978	0.11924321	1.378402	0.10475616	-0.066475537	0.70099258	0.083981345	0.14311629	1.3812368	0.12135043	0.017337484	0.72740006	0.1016201	0.056716023	1.340422	0.039397267	-0.012442706	0.64355701	0.076635103	0.082514051	1.2291743	0.43988329	-0.065011761	0.89990701	0.42523969	0.17576099	1.2191029	0.42786397	0.060535369	0.87398447	0.42711165	0.046020126	1.0530434	0.78332982	-0.11339349	0.99550041	0.77695184	0.23092809	1.1158865	0.83110653	-0.059686782	1.1030028	0.82636473	0.1903117	0.92211476	0.90275867	0.053789374	1.0011	1.308809	-0.12274903	1.0338919	1.3039405	0.23885522	0.94005999	1.3412698	0.064609801	0.893201	1.0167888	-0.1592896	1.0938278	0.995245	0.33271389	0.95036459	0.78747522	-0.21830445	1.33396	0.95245339	0.29139871
397	1.584	1.5099801	0.14324175	-0.060598886	0.82764185	0.035329878	0.11938898	1.3862709	0.10424991	-0.065362927	0.70218203	0.08535898	0.14373905	1.3888728	0.12099002	0.018342414	0.72842843	0.10291713	0.057246955	1.348196	0.038945936	-0.011582739	0.6443723	0.078965269	0.083214106	1.2366823	0.43957984	-0.06462523	0.9047714	0.42481216	0.17580042	1.2263875	0.42733662	0.060834652	0.87894472	0.42662369	0.046098877	1.0599599	0.78242934	-0.11380772	1.0014097	0.77610701	0.23046913	1.1227628	0.8299158	-0.05977474	1.1094039	0.82524989	0.19022526	0.92878509	0.90185351	0.053149374	1.007331	1.3077619	-0.1232957	1.0400323	1.3029063	0.23839729	0.94622724	1.3402019	0.0641171	0.89929138	1.0159759	-0.15923028	1.1007957	0.99437338	0.33241557	0.95467242	0.78644841	-0.21893158	1.3407413	0.95224524	0.29028961
